<svg xmlns="http://www.w3.org/2000/svg" width="256" height="256" viewBox="0 0 100 100"><rect width="100" height="100" rx="50" fill="#4839b3"></rect><path fill="#fff" d="M56.80 63.50L56.80 63.50Q55.72 64.40 54.01 64.94Q52.30 65.48 50.13 65.48L50.13 65.48Q47.26 65.48 45.32 64.76Q43.39 64.04 42.75 62.24L42.75 62.24Q39.88 53.87 37.85 48.34Q35.83 42.80 34.66 38.75L34.66 38.75L34.30 38.75Q34.03 44.33 33.84 48.97Q33.67 53.60 33.53 58.01Q33.39 62.42 33.22 66.92Q33.03 71.42 32.77 76.82L32.77 76.82Q31.78 77.18 30.11 77.50Q28.45 77.81 26.65 77.81L26.65 77.81Q23.14 77.81 21.16 76.59Q19.18 75.38 19.18 72.41L19.18 72.41Q19.18 70.70 19.31 67.69Q19.45 64.67 19.67 60.76Q19.90 56.84 20.21 52.34Q20.53 47.84 20.84 43.21Q21.16 38.57 21.43 34.03Q21.70 29.48 21.97 25.61L21.97 25.61Q22.69 24.62 24.89 23.41Q27.09 22.19 31.05 22.19L31.05 22.19Q35.28 22.19 37.72 23.54Q40.14 24.89 41.41 27.95L41.41 27.95Q42.39 30.38 43.48 33.40Q44.55 36.41 45.64 39.56Q46.72 42.71 47.75 45.82Q48.79 48.92 49.69 51.53L49.69 51.53L50.13 51.53Q52.66 43.61 55.17 36.19Q57.70 28.76 59.59 23.72L59.59 23.72Q60.84 23.09 62.78 22.64Q64.72 22.19 67.06 22.19L67.06 22.19Q71.10 22.19 73.53 23.36Q75.97 24.53 76.41 26.78L76.41 26.78Q76.78 28.58 77.22 32.27Q77.67 35.96 78.13 40.73Q78.58 45.50 79.03 50.77Q79.47 56.03 79.83 60.94Q80.19 65.84 80.47 69.89Q80.73 73.94 80.83 76.19L80.83 76.19Q79.47 77 77.94 77.41Q76.41 77.81 74.08 77.81L74.08 77.81Q71.10 77.81 68.99 76.73Q66.88 75.65 66.69 72.50L66.69 72.50Q66.06 62.06 65.84 53.38Q65.62 44.69 65.34 39.11L65.34 39.11L64.90 39.11Q63.81 42.89 61.79 48.65Q59.77 54.41 56.80 63.50Z"></path></svg>